<svg width="520" height="420" viewBox="0 0 520 420" fill="none" xmlns="http://www.w3.org/2000/svg">
  <defs>
    <linearGradient id="hg" x1="0" y1="0" x2="520" y2="420" gradientUnits="userSpaceOnUse">
      <stop stop-color="#22d3ee"/>
      <stop offset="0.5" stop-color="#6366f1"/>
      <stop offset="1" stop-color="#a855f7"/>
    </linearGradient>
    <radialGradient id="glow" cx="0.5" cy="0.45" r="0.55">
      <stop stop-color="#22d3ee" stop-opacity="0.35"/>
      <stop offset="1" stop-color="#22d3ee" stop-opacity="0"/>
    </radialGradient>
  </defs>
  <rect width="520" height="420" rx="20" fill="#0a0e17"/>
  <circle cx="260" cy="190" r="180" fill="url(#glow)"/>

  <!-- rede de nós -->
  <g stroke="url(#hg)" stroke-width="1.2" stroke-opacity="0.5">
    <line x1="90" y1="90" x2="260" y2="190"/>
    <line x1="430" y1="100" x2="260" y2="190"/>
    <line x1="110" y1="320" x2="260" y2="190"/>
    <line x1="420" y1="320" x2="260" y2="190"/>
    <line x1="90" y1="90" x2="430" y2="100"/>
    <line x1="110" y1="320" x2="420" y2="320"/>
  </g>
  <g fill="#22d3ee">
    <circle cx="90" cy="90" r="6"/>
    <circle cx="430" cy="100" r="6"/>
    <circle cx="110" cy="320" r="6"/>
    <circle cx="420" cy="320" r="6"/>
  </g>

  <!-- escudo central -->
  <path d="M260 95 L335 125 V200 C335 255 300 290 260 305 C220 290 185 255 185 200 V125 Z"
        fill="#0d1424" stroke="url(#hg)" stroke-width="3"/>
  <path d="M232 200 l18 18 36 -44" stroke="url(#hg)" stroke-width="7"
        fill="none" stroke-linecap="round" stroke-linejoin="round"/>

  <!-- linhas digitais -->
  <g fill="#34d399" font-family="monospace" font-size="11" opacity="0.6">
    <text x="40" y="380">01001110</text>
    <text x="380" y="60">11010</text>
  </g>
</svg>
